<svg width="33" height="63" xmlns="http://www.w3.org/2000/svg" xmlns:xlink="http://www.w3.org/1999/xlink" xml:space="preserve" overflow="hidden"><defs><clipPath id="clip0"><rect x="2277" y="1010" width="33" height="63"/></clipPath></defs><g clip-path="url(#clip0)" transform="translate(-2277 -1010)"><path d="M2301.05 1010C2304.32 1010 2307.31 1010.18 2310 1010.55L2310 1021.33 2303.71 1021.33C2301.76 1021.33 2300.46 1021.72 2299.8 1022.5 2299.16 1023.28 2298.83 1024.49 2298.83 1026.14L2298.83 1032.73 2309.68 1032.73 2308.12 1044.75 2298.83 1044.75 2298.83 1073 2286.42 1073 2286.42 1044.75 2277 1044.75 2277 1032.73 2286.42 1032.73 2286.42 1025.07C2286.42 1020.3 2287.74 1016.6 2290.4 1013.96 2293.05 1011.32 2296.61 1010 2301.05 1010Z" fill-rule="evenodd"/></g></svg>