<svg width="1127" height="1475" xmlns="http://www.w3.org/2000/svg" xmlns:xlink="http://www.w3.org/1999/xlink" xml:space="preserve" overflow="hidden"><defs><clipPath id="clip0"><rect x="43" y="500" width="1127" height="1475"/></clipPath></defs><g clip-path="url(#clip0)" transform="translate(-43 -500)"><path d="M328.24 1975 222.381 1975C123.811 1975 43.6211 1894.92 43.6211 1796.5L43 1465.03C42.9505 1439.11 63.9384 1418.05 89.8697 1418L89.9563 1418C115.85 1418 136.863 1438.96 136.913 1464.86L137.534 1796.4C137.534 1843.15 175.598 1881.1 222.381 1881.1L328.24 1881.1C375.023 1881.1 413.087 1843.15 413.087 1796.49L412.889 1641.07C412.851 1615.15 433.852 1594.1 459.783 1594.07L459.845 1594.07C485.751 1594.07 506.764 1615.05 506.801 1640.95L507 1796.43C507 1894.91 426.81 1974.99 328.24 1974.99Z" fill="#FFFFFF" fill-rule="evenodd"/><path d="M735.977 1622C711.785 1622 683.187 1616.87 650.841 1602.19 650.581 1602.06 650.32 1601.95 650.072 1601.83 596.104 1576.15 530.269 1544.71 466.595 1514.29 339.965 1453.8 209.017 1391.27 166.343 1371.63 131.329 1355.52 101.08 1341.6 78.7385 1315.23 55.1923 1287.43 44.5054 1250.65 44.096 1195.98 43.7857 1154.45 44.2821 1116.67 44.816 1076.68 45.4365 1030.03 46.0696 981.796 45.4116 924.464 44.667 859.982 72.1972 804.935 120.977 773.463 174.66 738.814 245.26 737.51 314.669 769.875 314.794 769.938 314.918 769.987 315.029 770.049L916.512 1056.9C956.678 1076.06 1004.92 1058.97 1024.06 1018.8L1068.18 926.264C1077.45 906.81 1078.6 884.898 1071.4 864.576 1064.2 844.252 1049.53 827.952 1030.07 818.678L581.805 605.355C581.643 605.28 581.482 605.206 581.321 605.119 556.819 593.114 535.644 590.606 523.207 598.241 512.855 604.598 506.736 619.533 506.401 639.26 506.376 646.559 506.314 665.132 506.339 673.413 506.488 674.679 506.587 675.958 506.649 677.274 506.686 678.23 506.736 679.844 506.785 682.438 506.86 686.957 506.909 694.443 506.959 705.319 507.058 731.241 486.131 752.346 460.203 752.445L460.016 752.445C434.174 752.445 413.185 731.551 413.086 705.679 413.036 693.996 412.986 687.864 412.937 684.66 412.701 682.724 412.552 680.725 412.515 678.677 412.49 677.51 412.477 675.548 412.465 672.345 412.465 666.299 412.465 655.597 412.527 638.664 412.527 638.49 412.527 638.304 412.527 638.13 413.297 585.479 435.738 541.767 474.104 518.228 515.04 493.101 567.68 493.982 622.355 520.686L1070.45 733.91C1112.58 753.997 1144.33 789.255 1159.89 833.216 1175.46 877.176 1172.99 924.563 1152.91 966.662L1108.8 1059.2C1067.37 1146.09 962.996 1183.08 876.123 1141.65L274.839 854.892C235.356 836.518 197.834 835.599 171.867 852.347 150.468 866.152 138.9 891.379 139.272 923.384 139.943 981.883 139.297 1030.72 138.677 1077.94 138.156 1117.43 137.659 1154.73 137.957 1195.29 138.404 1255.44 144.759 1258.37 205.566 1286.35 248.848 1306.27 380.106 1368.96 507.034 1429.58 570.51 1459.9 636.158 1491.25 689.977 1516.86 751.678 1544.68 782.907 1515.68 798.261 1486.42L799.366 1484.31C807.756 1468.31 812.51 1459.02 813.627 1456.45 816.197 1450.52 820.963 1439.48 843.404 1392.9 855.457 1367.9 858.311 1346.02 851.894 1327.88 842.796 1302.13 817.637 1288.54 810.139 1284.99L570.063 1170.79C569.802 1170.66 569.541 1170.54 569.281 1170.41 551.072 1161.34 531.61 1159.6 520.848 1166.08 510.05 1172.59 507.344 1189.64 506.996 1202.92 506.686 1228.03 506.45 1240.1 506.314 1245.89 506.388 1246.98 506.45 1248.22 506.525 1249.77 506.699 1253.87 506.872 1260.31 507.058 1269.45 507.592 1295.37 487.025 1316.82 461.108 1317.35 460.773 1317.35 460.451 1317.35 460.116 1317.35 434.646 1317.35 413.744 1296.97 413.21 1271.38 413.011 1261.66 412.85 1256.75 412.763 1254.36 412.415 1251.74 412.291 1249.05 412.403 1246.32 412.428 1245.65 412.676 1238.67 413.148 1201.41 413.148 1201.23 413.148 1201.05 413.148 1200.87 414.848 1130.65 451.005 1098.53 472.416 1085.65 511.217 1062.27 562.901 1062.47 610.737 1086.17L850.38 1200.16C870.537 1209.71 919.789 1238.28 940.393 1296.58 950.732 1325.86 956.976 1373.41 927.956 1433.64 906.346 1478.5 901.903 1488.77 899.768 1493.71 896.702 1500.79 896.442 1501.3 882.478 1527.92L881.373 1530.02C860.657 1569.51 829.639 1597.9 791.67 1612.12 777.322 1617.49 758.567 1621.98 735.964 1621.98Z" fill="#FFBE98" fill-rule="evenodd"/></g></svg>