<svg width="67" height="67" xmlns="http://www.w3.org/2000/svg" xmlns:xlink="http://www.w3.org/1999/xlink" xml:space="preserve" overflow="hidden"><defs><clipPath id="clip0"><rect x="2458" y="1008" width="67" height="67"/></clipPath></defs><g clip-path="url(#clip0)" transform="translate(-2458 -1008)"><path d="M2491.55 1031.73C2488.88 1031.73 2486.58 1032.69 2484.67 1034.6 2482.76 1036.52 2481.8 1038.83 2481.8 1041.55 2481.8 1044.27 2482.76 1046.57 2484.67 1048.45 2486.58 1050.33 2488.87 1051.27 2491.54 1051.27 2494.2 1051.27 2496.48 1050.32 2498.37 1048.44 2500.26 1046.55 2501.2 1044.25 2501.2 1041.54 2501.2 1038.83 2500.26 1036.51 2498.38 1034.6 2496.51 1032.69 2494.23 1031.73 2491.55 1031.73ZM2491.55 1023.79C2496.44 1023.79 2500.61 1025.52 2504.06 1028.97 2507.51 1032.42 2509.23 1036.61 2509.23 1041.54 2509.23 1046.46 2507.5 1050.64 2504.04 1054.07 2500.58 1057.49 2496.42 1059.21 2491.55 1059.21 2486.67 1059.21 2482.49 1057.48 2479 1054.02 2475.51 1050.56 2473.77 1046.4 2473.77 1041.54 2473.77 1036.67 2475.51 1032.5 2478.98 1029.02 2482.46 1025.53 2486.65 1023.79 2491.55 1023.79ZM2508.77 1019.25C2510.18 1019.25 2511.36 1019.73 2512.32 1020.7 2513.29 1021.66 2513.77 1022.82 2513.77 1024.18 2513.77 1025.54 2513.28 1026.71 2512.32 1027.68 2511.35 1028.65 2510.17 1029.13 2508.77 1029.13 2507.38 1029.13 2506.2 1028.65 2505.23 1027.69 2504.27 1026.72 2503.79 1025.56 2503.79 1024.18 2503.79 1022.81 2504.27 1021.65 2505.23 1020.69 2506.18 1019.73 2507.37 1019.25 2508.77 1019.25ZM2485.35 1015.94C2484.57 1015.94 2483.43 1015.95 2481.95 1015.99 2480.47 1016.02 2479.23 1016.08 2478.24 1016.15 2477.25 1016.22 2476.24 1016.36 2475.22 1016.56 2474.2 1016.76 2473.33 1017.02 2472.6 1017.34 2471.49 1017.76 2470.45 1018.45 2469.49 1019.41 2468.49 1020.41 2467.77 1021.43 2467.33 1022.47 2467.02 1023.32 2466.76 1024.36 2466.55 1025.59 2466.33 1026.81 2466.19 1028.24 2466.12 1029.86 2466.05 1031.49 2466 1032.82 2465.96 1033.85 2465.93 1034.89 2465.93 1036.37 2465.97 1038.31 2466.01 1040.25 2466.03 1041.16 2466.03 1041.04 2466.03 1040.92 2466.01 1041.99 2465.97 1044.24 2465.93 1046.49 2465.93 1048.13 2465.96 1049.16 2466 1050.2 2466.05 1051.55 2466.12 1053.23 2466.2 1054.91 2466.33 1056.31 2466.54 1057.43 2466.74 1058.55 2467.01 1059.58 2467.33 1060.52 2467.8 1061.6 2468.53 1062.67 2469.52 1063.73 2470.49 1064.64 2471.52 1065.32 2472.6 1065.77 2473.43 1066.08 2474.45 1066.34 2475.67 1066.55 2476.88 1066.76 2478.3 1066.91 2479.92 1066.97 2481.54 1067.04 2482.87 1067.1 2483.9 1067.13 2484.93 1067.17 2486.42 1067.17 2488.36 1067.13 2490.3 1067.09 2491.22 1067.07 2491.13 1067.07 2491.04 1067.07 2492.1 1067.08 2494.32 1067.12 2496.53 1067.16 2498.15 1067.17 2499.19 1067.13 2500.22 1067.1 2501.53 1067.04 2503.12 1066.97 2504.71 1066.91 2506.1 1066.76 2507.31 1066.55 2508.53 1066.34 2509.55 1066.08 2510.39 1065.77 2511.47 1065.32 2512.49 1064.64 2513.47 1063.72 2514.46 1062.67 2515.19 1061.6 2515.67 1060.53 2515.99 1059.58 2516.24 1058.55 2516.45 1057.42 2516.65 1056.3 2516.79 1054.9 2516.86 1053.23 2516.93 1051.55 2516.98 1050.2 2517.02 1049.16 2517.06 1048.13 2517.06 1046.64 2517.02 1044.7 2516.98 1042.76 2516.97 1041.69 2516.97 1041.5 2516.97 1041.31 2516.98 1040.24 2517.02 1038.31 2517.06 1036.37 2517.06 1034.89 2517.02 1033.85 2516.98 1032.82 2516.93 1031.49 2516.86 1029.86 2516.79 1028.24 2516.65 1026.81 2516.44 1025.59 2516.22 1024.37 2515.97 1023.33 2515.67 1022.46 2515.22 1021.43 2514.49 1020.41 2513.5 1019.41 2512.54 1018.45 2511.49 1017.76 2510.37 1017.34 2509.65 1017.02 2508.78 1016.76 2507.76 1016.56 2506.74 1016.36 2505.76 1016.22 2504.81 1016.15 2503.86 1016.08 2502.63 1016.02 2501.11 1015.99 2499.6 1015.95 2498.47 1015.94 2497.71 1015.94 2496.95 1015.94 2495.78 1015.94 2494.2 1015.94 2492.62 1015.94 2491.74 1015.94 2491.55 1015.94 2491.38 1015.94 2490.49 1015.94 2488.91 1015.94 2487.32 1015.94 2486.14 1015.94 2485.35 1015.94ZM2491.5 1008C2497.22 1008 2501.7 1008.08 2504.94 1008.23 2511.09 1008.54 2515.85 1010.38 2519.24 1013.78 2522.63 1017.17 2524.47 1021.9 2524.77 1027.98 2524.92 1031.26 2525 1035.77 2525 1041.52 2525 1047.26 2524.92 1051.73 2524.77 1054.93 2524.47 1061.04 2522.63 1065.83 2519.26 1069.28 2515.75 1072.72 2510.97 1074.59 2504.93 1074.89 2502.92 1074.96 2498.44 1075 2491.5 1075 2484.55 1075 2480.07 1074.96 2478.04 1074.89 2472.01 1074.59 2467.23 1072.71 2463.71 1069.26 2460.35 1065.82 2458.52 1061.04 2458.22 1054.93 2458.07 1051.97 2458 1047.5 2458 1041.51 2458 1035.52 2458.07 1031.01 2458.22 1027.98 2458.52 1021.9 2460.36 1017.17 2463.75 1013.77 2467.13 1010.38 2471.9 1008.53 2478.04 1008.23 2481.28 1008.08 2485.77 1008 2491.5 1008Z" fill-rule="evenodd"/></g></svg>