<svg width="67" height="64" xmlns="http://www.w3.org/2000/svg" xmlns:xlink="http://www.w3.org/1999/xlink" xml:space="preserve" overflow="hidden"><defs><clipPath id="clip0"><rect x="2062" y="1002" width="67" height="64"/></clipPath></defs><g clip-path="url(#clip0)" transform="translate(-2062 -1002)"><path d="M2062.86 1022.17 2079 1022.17 2079 1066 2062.86 1066ZM2111.92 1021.2C2117.08 1021.2 2121.22 1022.89 2124.33 1026.26 2127.44 1029.64 2129 1034.54 2129 1040.96L2129 1066 2112.97 1066 2112.97 1042.57C2112.97 1036.98 2110.97 1034.18 2106.95 1034.18 2105.48 1034.18 2104.22 1034.62 2103.16 1035.49 2102.1 1036.36 2101.34 1037.33 2100.89 1038.4 2100.62 1039.28 2100.49 1040.34 2100.49 1041.6L2100.49 1066 2084.36 1066 2084.36 1022.17 2100.49 1022.17 2100.49 1026.94 2100.92 1026.32C2103.89 1022.9 2107.55 1021.2 2111.92 1021.2ZM2070.98 1002C2073.59 1002 2075.7 1002.79 2077.32 1004.36 2078.94 1005.94 2079.75 1008.05 2079.75 1010.68 2079.83 1012.78 2079.03 1014.61 2077.38 1016.18 2075.72 1017.76 2073.55 1018.54 2070.88 1018.54L2070.77 1018.54C2068.16 1018.54 2066.05 1017.75 2064.43 1016.18 2062.81 1014.6 2062 1012.63 2062 1010.26 2062 1007.88 2062.85 1005.91 2064.54 1004.35 2066.23 1002.78 2068.38 1002 2070.98 1002Z" fill-rule="evenodd"/></g></svg>